<?xml version="1.0" encoding="UTF-8" standalone="no"?>
<svg
   width="261.45032"
   height="277.55331"
   version="1.1"
   id="svg7"
   sodipodi:docname="sergio-maj--solutions.svg"
   inkscape:version="1.3 (0e150ed6c4, 2023-07-21)"
   inkscape:export-filename="sergo-maj--solutions"
   inkscape:export-xdpi="346.15182"
   inkscape:export-ydpi="346.15182"
   xmlns:inkscape="http://www.inkscape.org/namespaces/inkscape"
   xmlns:sodipodi="http://sodipodi.sourceforge.net/DTD/sodipodi-0.dtd"
   xmlns="http://www.w3.org/2000/svg"
   xmlns:svg="http://www.w3.org/2000/svg">
  <defs
     id="defs7" />
  <sodipodi:namedview
     id="namedview7"
     pagecolor="#ffffff"
     bordercolor="#000000"
     borderopacity="0.25"
     inkscape:showpageshadow="2"
     inkscape:pageopacity="0.0"
     inkscape:pagecheckerboard="0"
     inkscape:deskcolor="#d1d1d1"
     inkscape:zoom="0.37910315"
     inkscape:cx="-332.36337"
     inkscape:cy="56.712797"
     inkscape:window-width="1366"
     inkscape:window-height="745"
     inkscape:window-x="-8"
     inkscape:window-y="-8"
     inkscape:window-maximized="1"
     inkscape:current-layer="svg7" />
  <path
     fill="#e0ff4f"
     d="m 110.04424,201.14268 c -11.221504,10.08001 -29.440504,7.37808 -35.844604,-6.69359 -1.9274,-4.23663 -1.6751,-8.22108 -1.6755,-12.74952 l 0.015,-65.59211 c 0.025,-12.22715 -0.5852,-16.01346 -12.3534,-23.867068 L 5.7966355,56.744202 c -5.48179995,-3.43326 -5.78799995,-1.68241 -5.78159995,-7.44293 l 0.046,-49.3012604375 C 2.9906355,1.2284916 5.4146355,2.8532516 7.9403355,4.5644816 l 33.9897005,23.0060504 45.1965,29.67803 c 4.4677,3.00815 9.4676,5.54797 13.672104,8.86234 17.1316,13.50245 15.9984,29.93381 15.9965,49.330078 l 0.052,68.69394 c 0.068,6.88092 -1.7523,11.77682 -6.8027,17.00776 z"
     id="path2"
     style="stroke-width:3.68578"
     inkscape:export-filename=".\path2.svg"
     inkscape:export-xdpi="46.999371"
     inkscape:export-ydpi="46.999371" />
  <path
     fill="#e0ff4f"
     d="m 152.2594,201.53896 c -3.8037,-3.42605 -5.84904,-7.25198 -7.12398,-12.03981 l -0.0773,-0.2882 c -0.39783,-1.55992 -0.22927,-3.43326 -0.23153,-5.04361 l -0.0192,-83.97607 c 0.003,-13.415988 4.02957,-25.120758 15.50102,-33.932668 4.41986,-3.39723 9.5019,-6.22165 14.19025,-9.27663 L 257.84262,1.5959516 c 0.90351,-0.56921 1.70068,-0.93667004 2.75879,-1.16723004 0.45854,0.0108 0.49512,-0.0144 0.79113,0.21975 l -0.0667,48.75007044 c -0.009,3.18108 0.85562,2.60467 -1.85076,4.29427 l -52.37246,34.04436 c -13.47077,8.59935 -17.86386,11.7516 -17.90195,27.206658 l 0.0279,66.66568 c 7.6e-4,2.36689 0.20627,4.98236 -0.21004,7.31323 -3.09741,17.34641 -23.14952,23.65812 -36.75906,12.61622 z"
     id="path3"
     style="stroke-width:3.68578" />
  <path
     fill="#e0ff4f"
     d="m 43.447136,143.2925 -0.3194,0.18734 c -1.2971,-0.56201 -2.494,-1.37979 -3.7094,-2.0859 L 2.9093355,120.28645 c -0.9756,-0.58722 -2.06689995,-1.10599 -2.909299953125,-1.85533 L 0.02003555,76.515142 42.125136,103.8623 c 0.4235,0.20895 0.7674,0.40709 1.1505,0.67728 0.5045,0.81058 0.1908,34.33977 0.1716,38.75292 z"
     id="path4"
     style="stroke-width:3.68578" />
  <path
     fill="#e0ff4f"
     d="m 217.74779,143.06914 0.20287,-38.21613 c 0.19081,-0.30982 0.31676,-0.47914 0.64106,-0.67008 l 42.7925,-27.574118 -0.0287,41.141418 c -0.3209,0.62685 -1.59132,1.15283 -2.23501,1.50228 z"
     id="path5"
     style="stroke-width:3.68578" />
  <path
     fill="#e0ff4f"
     d="m 0.02193555,183.98 -0.01,-45.09705 c 1.42879995,0.94027 4.53789995,2.22279 6.45239995,3.35039 l 35.0859005,20.64998 c 0.5098,0.31342 1.5253,0.86822 1.8149,1.39059 0.3043,0.54759 0.086,39.5599 0.09,44.75121 l 0.01,7.04304 c 0.01,6.81247 1.933,14.4031 9.8813,16.507 2.7101,0.71692 6.1213,0.37467 8.9385,0.37467 l 134.668884,0.004 c 3.02162,0 6.12016,0.1369 9.13424,-0.0216 5.44819,-0.28461 10.1422,-5.52635 11.43939,-10.21691 0.67952,-2.46056 0.45289,-5.14448 0.44497,-7.66268 l -0.0505,-47.91787 c -0.001,-1.86254 -0.44799,-2.70914 1.23119,-3.86557 l 30.63891,-17.96965 c 3.69736,-2.13273 7.28537,-4.58608 11.14262,-6.44141 l 0.40763,83.73109 c -0.002,6.50986 0.2338,12.88282 -1.15955,19.299 -4.1559,19.1477 -21.46959,33.31303 -41.56281,35.3701 -4.60728,0.46834 -9.39519,0.23777 -14.03,0.24138 l -155.665174,-0.0148 c -27.241,-0.018 -47.4458005,-18.24345 -48.85200045,-44.70798 z"
     id="path6"
     style="stroke-width:3.68578" />
</svg>
